<svg xmlns="http://www.w3.org/2000/svg" xmlns:xlink="http://www.w3.org/1999/xlink" width="500" zoomAndPan="magnify" viewBox="0 0 375 374.999991" height="500" preserveAspectRatio="xMidYMid meet" version="1.0"><defs><g/><clipPath id="5009d99078"><path d="M 187 102 L 229.800781 102 L 229.800781 187.136719 L 187 187.136719 Z M 187 102 " clip-rule="nonzero"/></clipPath><clipPath id="607d112aad"><path d="M 145.050781 134 L 188 134 L 188 187.136719 L 145.050781 187.136719 Z M 145.050781 134 " clip-rule="nonzero"/></clipPath><clipPath id="e41fb04261"><path d="M 187 76.886719 L 229.800781 76.886719 L 229.800781 131 L 187 131 Z M 187 76.886719 " clip-rule="nonzero"/></clipPath><clipPath id="ace37ea293"><path d="M 145.050781 76.886719 L 188 76.886719 L 188 162 L 145.050781 162 Z M 145.050781 76.886719 " clip-rule="nonzero"/></clipPath></defs><rect x="-37.5" width="450" fill="#ffffff" y="-37.499999" height="449.999989" fill-opacity="1"/><rect x="-37.5" width="450" fill="#ffffff" y="-37.499999" height="449.999989" fill-opacity="1"/><g clip-path="url(#5009d99078)"><path fill="#7b7979" d="M 187.496094 102.742188 L 187.496094 117.296875 L 215.320312 145.117188 L 198.375 162.066406 L 187.496094 172.945312 L 187.496094 187.5 L 229.875 145.121094 L 187.496094 102.742188 " fill-opacity="1" fill-rule="nonzero"/></g><g clip-path="url(#607d112aad)"><path fill="#444142" d="M 176.617188 162.066406 L 159.671875 145.121094 L 163.246094 141.546875 L 155.96875 134.269531 L 155.789062 134.445312 L 155.789062 134.449219 L 145.117188 145.121094 L 187.496094 187.5 L 187.496094 172.945312 L 176.617188 162.066406 " fill-opacity="1" fill-rule="nonzero"/></g><g clip-path="url(#e41fb04261)"><path fill="#6ac23f" d="M 198.371094 102.316406 L 215.320312 119.265625 L 211.746094 122.835938 L 219.023438 130.113281 L 219.203125 129.9375 L 229.875 119.265625 L 187.496094 76.882812 L 187.496094 91.441406 L 198.371094 102.316406 " fill-opacity="1" fill-rule="nonzero"/></g><g clip-path="url(#ace37ea293)"><path fill="#498536" d="M 159.671875 119.265625 L 187.496094 91.441406 L 187.496094 76.882812 L 145.117188 119.265625 L 155.789062 129.9375 L 187.496094 161.640625 L 187.496094 147.085938 L 159.671875 119.265625 " fill-opacity="1" fill-rule="nonzero"/></g><g fill="#000000" fill-opacity="1"><g transform="translate(101.547673, 252.439831)"><g><path d="M 0.109375 0.171875 L -0.0625 -1.921875 L 1.4375 -2 C 1.800781 -2.03125 2.113281 -2.117188 2.375 -2.265625 C 2.632812 -2.410156 2.832031 -2.625 2.96875 -2.90625 C 3.101562 -3.1875 3.171875 -3.515625 3.171875 -3.890625 L 3.171875 -13.46875 L 5.6875 -13.46875 L 5.6875 -3.84375 C 5.6875 -3.039062 5.535156 -2.351562 5.234375 -1.78125 C 4.941406 -1.21875 4.507812 -0.773438 3.9375 -0.453125 C 3.363281 -0.140625 2.660156 0.0390625 1.828125 0.09375 Z M 0.109375 0.171875 "/></g></g></g><g fill="#000000" fill-opacity="1"><g transform="translate(110.635357, 252.439831)"><g><path d="M 7.203125 0.1875 C 5.359375 0.1875 3.941406 -0.285156 2.953125 -1.234375 C 1.972656 -2.179688 1.484375 -3.582031 1.484375 -5.4375 L 1.484375 -13.46875 L 4.015625 -13.46875 L 4.015625 -5.5 C 4.015625 -4.332031 4.285156 -3.460938 4.828125 -2.890625 C 5.378906 -2.316406 6.171875 -2.03125 7.203125 -2.03125 C 8.242188 -2.03125 9.035156 -2.316406 9.578125 -2.890625 C 10.117188 -3.460938 10.390625 -4.332031 10.390625 -5.5 L 10.390625 -13.46875 L 12.890625 -13.46875 L 12.890625 -5.4375 C 12.890625 -3.59375 12.40625 -2.191406 11.4375 -1.234375 C 10.46875 -0.285156 9.054688 0.1875 7.203125 0.1875 Z M 7.203125 0.1875 "/></g></g></g><g fill="#000000" fill-opacity="1"><g transform="translate(126.786277, 252.439831)"><g><path d="M 1.625 0 L 1.625 -13.46875 L 3.625 -13.46875 L 11.15625 -3.609375 L 10.84375 -3.609375 L 10.84375 -13.46875 L 13.234375 -13.46875 L 13.234375 0 L 11.171875 0 L 3.71875 -9.8125 L 3.984375 -9.8125 L 3.984375 0 Z M 1.625 0 "/></g></g></g><g fill="#000000" fill-opacity="1"><g transform="translate(143.414438, 252.439831)"><g><path d="M 1.625 0 L 1.625 -13.46875 L 4.140625 -13.46875 L 4.140625 -7.546875 L 4.203125 -7.546875 L 10.0625 -13.46875 L 13.125 -13.46875 L 6.015625 -6.359375 L 6.125 -7.5625 L 13.5 0 L 10.328125 0 L 4.203125 -6.203125 L 4.140625 -6.203125 L 4.140625 0 Z M 1.625 0 "/></g></g></g><g fill="#000000" fill-opacity="1"><g transform="translate(158.324521, 252.439831)"><g/></g></g><g fill="#000000" fill-opacity="1"><g transform="translate(165.484127, 252.439831)"><g><path d="M 1.625 0 L 1.625 -13.46875 L 7.5625 -13.46875 C 9.0625 -13.46875 10.210938 -13.113281 11.015625 -12.40625 C 11.828125 -11.707031 12.234375 -10.71875 12.234375 -9.4375 C 12.234375 -8.65625 12.066406 -7.984375 11.734375 -7.421875 C 11.410156 -6.867188 10.945312 -6.4375 10.34375 -6.125 C 9.75 -5.8125 9.03125 -5.628906 8.1875 -5.578125 L 8.3125 -5.734375 L 8.765625 -5.703125 C 9.179688 -5.679688 9.550781 -5.550781 9.875 -5.3125 C 10.207031 -5.082031 10.503906 -4.710938 10.765625 -4.203125 L 13.046875 0 L 10.265625 0 L 8.015625 -4.203125 C 7.867188 -4.492188 7.695312 -4.71875 7.5 -4.875 C 7.3125 -5.03125 7.09375 -5.140625 6.84375 -5.203125 C 6.601562 -5.273438 6.328125 -5.3125 6.015625 -5.3125 L 4.140625 -5.3125 L 4.140625 0 Z M 4.140625 -7.21875 L 7.203125 -7.21875 C 8.066406 -7.21875 8.710938 -7.394531 9.140625 -7.75 C 9.566406 -8.101562 9.78125 -8.640625 9.78125 -9.359375 C 9.78125 -10.054688 9.5625 -10.578125 9.125 -10.921875 C 8.695312 -11.265625 8.046875 -11.4375 7.171875 -11.4375 L 4.140625 -11.4375 Z M 4.140625 -7.21875 "/></g></g></g><g fill="#000000" fill-opacity="1"><g transform="translate(180.795085, 252.439831)"><g><path d="M 1.625 0 L 1.625 -13.46875 L 10.734375 -13.46875 L 10.734375 -11.421875 L 4.0625 -11.421875 L 4.0625 -7.84375 L 10.3125 -7.84375 L 10.3125 -5.796875 L 4.0625 -5.796875 L 4.0625 -2.046875 L 10.734375 -2.046875 L 10.734375 0 Z M 1.625 0 "/></g></g></g><g fill="#000000" fill-opacity="1"><g transform="translate(194.46432, 252.439831)"><g><path d="M 1.65625 0 L 1.65625 -13.46875 L 4.0625 -13.46875 L 8.78125 -4.453125 L 8.421875 -4.453125 L 13.140625 -13.46875 L 15.5 -13.46875 L 15.5 0 L 13.15625 0 L 13.15625 -9.71875 L 13.40625 -9.71875 L 9.375 -2.09375 L 7.796875 -2.09375 L 3.71875 -9.734375 L 3.984375 -9.734375 L 3.984375 0 Z M 1.65625 0 "/></g></g></g><g fill="#000000" fill-opacity="1"><g transform="translate(213.383256, 252.439831)"><g><path d="M 7.6875 0.1875 C 6.695312 0.1875 5.800781 0.0234375 5 -0.296875 C 4.195312 -0.617188 3.507812 -1.082031 2.9375 -1.6875 C 2.363281 -2.289062 1.925781 -3.019531 1.625 -3.875 C 1.320312 -4.726562 1.171875 -5.679688 1.171875 -6.734375 C 1.171875 -7.796875 1.320312 -8.75 1.625 -9.59375 C 1.925781 -10.4375 2.363281 -11.160156 2.9375 -11.765625 C 3.507812 -12.367188 4.195312 -12.832031 5 -13.15625 C 5.800781 -13.488281 6.695312 -13.65625 7.6875 -13.65625 C 8.675781 -13.65625 9.570312 -13.488281 10.375 -13.15625 C 11.175781 -12.832031 11.863281 -12.375 12.4375 -11.78125 C 13.007812 -11.1875 13.445312 -10.460938 13.75 -9.609375 C 14.050781 -8.765625 14.203125 -7.816406 14.203125 -6.765625 C 14.203125 -5.703125 14.050781 -4.742188 13.75 -3.890625 C 13.445312 -3.035156 13.007812 -2.300781 12.4375 -1.6875 C 11.863281 -1.082031 11.175781 -0.617188 10.375 -0.296875 C 9.570312 0.0234375 8.675781 0.1875 7.6875 0.1875 Z M 7.6875 -1.984375 C 8.519531 -1.984375 9.222656 -2.164062 9.796875 -2.53125 C 10.378906 -2.90625 10.828125 -3.445312 11.140625 -4.15625 C 11.453125 -4.875 11.609375 -5.734375 11.609375 -6.734375 C 11.609375 -7.753906 11.453125 -8.617188 11.140625 -9.328125 C 10.835938 -10.035156 10.394531 -10.566406 9.8125 -10.921875 C 9.226562 -11.285156 8.519531 -11.46875 7.6875 -11.46875 C 6.863281 -11.46875 6.160156 -11.285156 5.578125 -10.921875 C 4.992188 -10.566406 4.546875 -10.035156 4.234375 -9.328125 C 3.921875 -8.617188 3.765625 -7.753906 3.765625 -6.734375 C 3.765625 -5.734375 3.921875 -4.875 4.234375 -4.15625 C 4.546875 -3.445312 4.992188 -2.90625 5.578125 -2.53125 C 6.160156 -2.164062 6.863281 -1.984375 7.6875 -1.984375 Z M 7.6875 -1.984375 "/></g></g></g><g fill="#000000" fill-opacity="1"><g transform="translate(230.526837, 252.439831)"><g><path d="M 5.78125 0 L -0.171875 -13.46875 L 2.515625 -13.46875 L 7.140625 -2.59375 L 6.625 -2.59375 L 11.234375 -13.46875 L 13.859375 -13.46875 L 7.90625 0 Z M 5.78125 0 "/></g></g></g><g fill="#000000" fill-opacity="1"><g transform="translate(245.990516, 252.439831)"><g><path d="M 0.15625 0 L 6.21875 -13.46875 L 8.359375 -13.46875 L 14.4375 0 L 11.859375 0 L 10.234375 -3.78125 L 11.296875 -3 L 3.25 -3 L 4.3125 -3.78125 L 2.71875 0 Z M 7.25 -10.765625 L 4.578125 -4.453125 L 4.09375 -5.046875 L 10.46875 -5.046875 L 9.984375 -4.453125 L 7.3125 -10.765625 Z M 7.25 -10.765625 "/></g></g></g><g fill="#000000" fill-opacity="1"><g transform="translate(262.332334, 252.439831)"><g><path d="M 1.625 0 L 1.625 -13.46875 L 4.140625 -13.46875 L 4.140625 -2.15625 L 10.59375 -2.15625 L 10.59375 0 Z M 1.625 0 "/></g></g></g><g fill="#498536" fill-opacity="1"><g transform="translate(102.966029, 230.747591)"><g><path d="M 5.3125 0 L 0.4375 0 L 4.328125 -9.0625 L 4.828125 -10.171875 L 5.65625 -12.078125 L 9.734375 -21.625 L 13.625 -30.75 L 13.625 -30.703125 L 13.671875 -30.75 L 17.5625 -21.625 L 21.671875 -12.078125 L 22.46875 -10.171875 L 22.953125 -9.0625 L 26.84375 0 L 11.546875 0 L 13.40625 -4.421875 L 20.078125 -4.421875 L 17.5625 -10.34375 L 13.671875 -19.46875 L 9.734375 -10.34375 Z M 5.3125 0 "/></g></g></g><g fill="#498536" fill-opacity="1"><g transform="translate(130.519212, 230.747591)"><g><path d="M 17.46875 0.171875 C 15.375 0.171875 13.398438 -0.222656 11.546875 -1.015625 C 9.691406 -1.816406 8.066406 -2.910156 6.671875 -4.296875 C 5.285156 -5.679688 4.195312 -7.300781 3.40625 -9.15625 C 2.613281 -11.007812 2.21875 -12.984375 2.21875 -15.078125 C 2.21875 -17.203125 2.613281 -19.191406 3.40625 -21.046875 C 4.195312 -22.910156 5.285156 -24.535156 6.671875 -25.921875 C 8.066406 -27.304688 9.691406 -28.394531 11.546875 -29.1875 C 13.398438 -29.988281 15.375 -30.390625 17.46875 -30.390625 C 19.6875 -30.390625 21.742188 -29.953125 23.640625 -29.078125 C 25.546875 -28.210938 27.207031 -27.023438 28.625 -25.515625 L 26.28125 -21.40625 C 25.269531 -22.789062 24.003906 -23.890625 22.484375 -24.703125 C 20.972656 -25.515625 19.300781 -25.921875 17.46875 -25.921875 C 15.96875 -25.921875 14.5625 -25.640625 13.25 -25.078125 C 11.9375 -24.515625 10.789062 -23.738281 9.8125 -22.75 C 8.84375 -21.769531 8.078125 -20.625 7.515625 -19.3125 C 6.953125 -18 6.671875 -16.585938 6.671875 -15.078125 C 6.671875 -13.578125 6.953125 -12.171875 7.515625 -10.859375 C 8.078125 -9.546875 8.84375 -8.398438 9.8125 -7.421875 C 10.789062 -6.453125 11.9375 -5.6875 13.25 -5.125 C 14.5625 -4.570312 15.96875 -4.296875 17.46875 -4.296875 C 18.976562 -4.296875 20.390625 -4.570312 21.703125 -5.125 C 23.015625 -5.6875 24.15625 -6.457031 25.125 -7.4375 L 27.421875 -3.5 C 26.097656 -2.34375 24.585938 -1.441406 22.890625 -0.796875 C 21.191406 -0.148438 19.382812 0.171875 17.46875 0.171875 Z M 17.46875 0.171875 "/></g></g></g><g fill="#498536" fill-opacity="1"><g transform="translate(161.610518, 230.747591)"><g><path d="M 18.453125 -30.75 L 31.359375 -30.75 L 31.359375 -26.28125 L 18.453125 -26.28125 L 18.453125 0 L 14.015625 0 L 14.015625 -26.28125 L 1.109375 -26.28125 L 1.109375 -30.75 Z M 18.453125 -30.75 "/></g></g></g><g fill="#498536" fill-opacity="1"><g transform="translate(194.338204, 230.747591)"><g><path d="M 6.640625 0 L 2.21875 0 L 2.21875 -30.75 L 6.640625 -30.75 Z M 6.640625 0 "/></g></g></g><g fill="#498536" fill-opacity="1"><g transform="translate(203.448902, 230.747591)"><g><path d="M 17.25 0.171875 C 15.09375 0.171875 13.0625 -0.226562 11.15625 -1.03125 C 9.257812 -1.84375 7.601562 -2.945312 6.1875 -4.34375 C 4.769531 -5.75 3.65625 -7.394531 2.84375 -9.28125 C 2.039062 -11.175781 1.640625 -13.1875 1.640625 -15.3125 C 1.640625 -17.425781 2.039062 -19.425781 2.84375 -21.3125 C 3.65625 -23.207031 4.769531 -24.847656 6.1875 -26.234375 C 7.601562 -27.617188 9.257812 -28.71875 11.15625 -29.53125 C 13.0625 -30.34375 15.09375 -30.75 17.25 -30.75 C 19.40625 -30.75 21.425781 -30.34375 23.3125 -29.53125 C 25.195312 -28.71875 26.847656 -27.617188 28.265625 -26.234375 C 29.679688 -24.847656 30.796875 -23.207031 31.609375 -21.3125 C 32.421875 -19.425781 32.828125 -17.425781 32.828125 -15.3125 C 32.828125 -13.1875 32.421875 -11.175781 31.609375 -9.28125 C 30.796875 -7.394531 29.679688 -5.75 28.265625 -4.34375 C 26.847656 -2.945312 25.195312 -1.84375 23.3125 -1.03125 C 21.425781 -0.226562 19.40625 0.171875 17.25 0.171875 Z M 17.25 -26.28125 C 15.6875 -26.28125 14.226562 -25.988281 12.875 -25.40625 C 11.519531 -24.832031 10.335938 -24.050781 9.328125 -23.0625 C 8.328125 -22.082031 7.53125 -20.921875 6.9375 -19.578125 C 6.351562 -18.234375 6.0625 -16.8125 6.0625 -15.3125 C 6.0625 -13.769531 6.351562 -12.328125 6.9375 -10.984375 C 7.53125 -9.648438 8.328125 -8.488281 9.328125 -7.5 C 10.335938 -6.507812 11.519531 -5.726562 12.875 -5.15625 C 14.226562 -4.582031 15.6875 -4.296875 17.25 -4.296875 C 18.78125 -4.296875 20.222656 -4.582031 21.578125 -5.15625 C 22.941406 -5.726562 24.125 -6.507812 25.125 -7.5 C 26.125 -8.488281 26.914062 -9.648438 27.5 -10.984375 C 28.09375 -12.328125 28.390625 -13.769531 28.390625 -15.3125 C 28.390625 -16.8125 28.09375 -18.234375 27.5 -19.578125 C 26.914062 -20.921875 26.125 -22.082031 25.125 -23.0625 C 24.125 -24.050781 22.941406 -24.832031 21.578125 -25.40625 C 20.222656 -25.988281 18.78125 -26.28125 17.25 -26.28125 Z M 17.25 -26.28125 "/></g></g></g><g fill="#498536" fill-opacity="1"><g transform="translate(238.166784, 230.747591)"><g><path d="M 6.671875 0 L 2.21875 0 L 2.21875 -30.75 L 7.46875 -30.75 L 8.265625 -29.5 L 8.3125 -29.453125 L 9.296875 -27.953125 L 9.25 -27.90625 L 21.765625 -7.34375 L 21.765625 -30.75 L 26.1875 -30.75 L 26.1875 0 L 21.765625 0 C 19.222656 -3.945312 16.695312 -7.890625 14.1875 -11.828125 C 11.6875 -15.765625 9.179688 -19.722656 6.671875 -23.703125 Z M 6.671875 0 "/></g></g></g></svg>